<svg width="30" height="26" viewBox="0 0 30 26" fill="none" xmlns="http://www.w3.org/2000/svg">
<g id="LinkedIn svg" clip-path="url(#clip0_72_6219)">
<path id="Path 2525" d="M28.5279 23.6902C28.5923 23.6908 28.6561 23.6783 28.7154 23.6535C28.7747 23.6287 28.8282 23.5921 28.8727 23.546C28.9171 23.4999 28.9514 23.4452 28.9736 23.3854C28.9958 23.3256 29.0054 23.2619 29.0017 23.1982C29.0017 22.8493 28.7891 22.6826 28.3529 22.6826H27.6482V24.5093H27.9133V23.713H28.239L28.2464 23.7227L28.7519 24.5093H29.0353L28.4915 23.6952L28.5279 23.6902ZM28.2214 23.5072H27.914V22.8896H28.3036C28.5048 22.8896 28.7342 22.9222 28.7342 23.1831C28.7342 23.4832 28.5021 23.5072 28.2198 23.5072" fill="#0A66C2"/>
<path id="Path 2520" d="M21.6135 21.4009H17.8549V15.5727C17.8549 14.1829 17.8298 12.3938 15.9 12.3938C13.9424 12.3938 13.6429 13.9081 13.6429 15.4715V21.4005H9.88425V9.41541H13.4925V11.0533H13.543C13.9041 10.442 14.4259 9.93905 15.0529 9.59812C15.6798 9.2572 16.3884 9.09102 17.1032 9.11729C20.9127 9.11729 21.6151 11.5984 21.6151 14.8261L21.6135 21.4009ZM5.6433 7.77713C5.2119 7.77721 4.79016 7.65062 4.43143 7.41337C4.07269 7.17613 3.79309 6.83888 3.62793 6.44428C3.46277 6.04967 3.41948 5.61544 3.50357 5.19649C3.58765 4.77753 3.79533 4.39268 4.10032 4.09059C4.4053 3.7885 4.79391 3.58274 5.217 3.49933C5.64009 3.41592 6.07865 3.45861 6.47724 3.622C6.87583 3.78539 7.21653 4.06214 7.45626 4.41726C7.696 4.77238 7.824 5.18991 7.82408 5.61705C7.82413 5.90067 7.76775 6.18152 7.65819 6.44356C7.54862 6.70561 7.38802 6.94372 7.18551 7.1443C6.98301 7.34488 6.74257 7.504 6.47796 7.61258C6.21335 7.72117 5.92973 7.77708 5.6433 7.77713ZM7.5226 21.4009H3.76008V9.41541H7.5226V21.4009ZM23.4873 0.00171122H1.87138C1.38076 -0.0037709 0.90799 0.183835 0.556996 0.523303C0.206002 0.862771 0.00549947 1.32633 -0.000488281 1.81211V23.3039C0.00529454 23.79 0.20568 24.2538 0.556661 24.5936C0.907643 24.9335 1.38052 25.1214 1.87138 25.1163H23.4873C23.9791 25.1224 24.4533 24.9349 24.8057 24.5951C25.1581 24.2553 25.3598 23.7909 25.3666 23.3039V1.81056C25.3596 1.32381 25.1577 0.85973 24.8054 0.52027C24.453 0.18081 23.9789 -0.00625967 23.4873 0.000159931" fill="#0A66C2"/>
<path id="Path 2526" d="M28.2534 21.8682C27.7961 21.8725 27.3591 22.056 27.0381 22.3785C26.7171 22.701 26.5381 23.1362 26.5403 23.589C26.5425 24.0418 26.7257 24.4754 27.0499 24.7948C27.374 25.1142 27.8127 25.2935 28.27 25.2935C28.7274 25.2935 29.166 25.1142 29.4902 24.7948C29.8143 24.4754 29.9976 24.0418 29.9998 23.589C30.002 23.1362 29.823 22.701 29.502 22.3785C29.1809 22.056 28.744 21.8725 28.2867 21.8682H28.2534ZM28.2534 25.0974C27.9535 25.1024 27.6588 25.0191 27.4066 24.8582C27.1544 24.6973 26.9561 24.466 26.8367 24.1935C26.7173 23.9211 26.6822 23.6196 26.7358 23.3274C26.7894 23.0351 26.9294 22.7652 27.138 22.5517C27.3465 22.3382 27.6143 22.1907 27.9075 22.1279C28.2007 22.0651 28.5062 22.0899 28.7852 22.1989C29.0642 22.308 29.3043 22.4966 29.4751 22.7408C29.6459 22.985 29.7397 23.2738 29.7447 23.5708C29.7447 23.5793 29.7447 23.5875 29.7447 23.596C29.7531 23.9856 29.6049 24.3625 29.3326 24.644C29.0604 24.9254 28.6864 25.0882 28.2929 25.0966H28.2538" fill="#0A66C2"/>
</g>
<defs>
<clipPath id="clip0_72_6219">
<rect width="30" height="25.3247" fill="white"/>
</clipPath>
</defs>
</svg>
