<svg width="30" height="22" viewBox="0 0 30 22" fill="none" xmlns="http://www.w3.org/2000/svg">
<g id="YouTube svg" clip-path="url(#clip0_72_6225)">
<g id="g10">
<g id="g12">
<path id="path14" d="M29.3731 3.28883C29.0281 1.99409 28.0116 0.974529 26.7208 0.628506C24.3813 -0.000350952 15 -0.000352859 15 -0.000352859C15 -0.000352859 5.61874 -0.000350952 3.27919 0.628506C1.98845 0.974529 0.971857 1.99409 0.626886 3.28883C0 5.63546 0 10.5316 0 10.5316C0 10.5316 0 15.4276 0.626886 17.7744C0.971857 19.069 1.98845 20.0886 3.27919 20.4348C5.61874 21.0635 15 21.0635 15 21.0635C15 21.0635 24.3813 21.0635 26.7208 20.4348C28.0116 20.0886 29.0281 19.069 29.3731 17.7744C30 15.4276 30 10.5316 30 10.5316C30 10.5316 30 5.63546 29.3731 3.28883Z" fill="#ED1D24"/>
<path id="path16" d="M11.9319 14.9766L19.7728 10.5315L11.9319 6.08601V14.9766Z" fill="white"/>
</g>
</g>
</g>
<defs>
<clipPath id="clip0_72_6225">
<rect width="30" height="21.0638" fill="white"/>
</clipPath>
</defs>
</svg>
